<svg version="1.1" viewBox="0.0 0.0 891.0 100.0" fill="none" stroke="none" stroke-linecap="square" stroke-miterlimit="10" xmlns:xlink="http://www.w3.org/1999/xlink" xmlns="http://www.w3.org/2000/svg"><clipPath id="p.0"><path d="m0 0l891.0 0l0 100.0l-891.0 0l0 -100.0z" clip-rule="nonzero"/></clipPath><path fill="#000000" fill-opacity="0.0" d="m0 0l891.0 0l0 100.0l-891.0 0z" fill-rule="evenodd"/><path fill="#DCC357" d="m0 42.0l0 0c0 -23.19596 18.80404 -42.0 42.0 -42.0l806.9921 0c11.139099 0 21.82196 4.4249873 29.698486 12.301516c7.876526 7.876528 12.301514 18.559391 12.301514 29.698484l0 16.0l0 0c0 23.195961 -18.804016 42.0 -42.0 42.0l-806.9921 0c-23.19596 0 -42.0 -18.804039 -42.0 -42.0z" fill-rule="evenodd"/></svg>